<?xml version="1.0" encoding="utf-8"?>
<!-- Generator: Adobe Illustrator 19.1.0, SVG Export Plug-In . SVG Version: 6.00 Build 0)  -->
<svg version="1.1" id="Ebene_1" xmlns="http://www.w3.org/2000/svg" xmlns:xlink="http://www.w3.org/1999/xlink" x="0px" y="0px"
	 width="58px" height="58px" viewBox="0 0 58 58" style="enable-background:new 0 0 58 58;" xml:space="preserve">
<style type="text/css">
	.st0{fill:#C7D5F6;}
	.st1{fill:url(#SVGID_1_);}
	.st2{fill-rule:evenodd;clip-rule:evenodd;fill:#FFFFFF;}
	.st3{fill:#69738B;}
	.st4{fill:#F5D34F;}
	.st5{fill:url(#SVGID_2_);}
	.st6{fill:#94780A;}
	.st7{fill:#C69C6D;}
	.st8{fill:url(#SVGID_3_);}
	.st9{fill:#8C6239;}
	.st10{fill:#C0DD51;}
	.st11{fill:url(#SVGID_4_);}
	.st12{fill:#FFFFFF;}
	.st13{fill:#637C25;}
	.st14{fill:url(#SVGID_5_);}
	.st15{fill:#6AB125;}
	.st16{fill:url(#SVGID_6_);}
	.st17{fill:#436B18;}
	.st18{fill:#67AD30;}
	.st19{fill:url(#SVGID_7_);}
	.st20{fill:#603813;}
	.st21{fill:#42210B;}
	.st22{fill:#3A2513;}
	.st23{fill:#1C120B;}
	.st24{fill:#6D4F3B;}
	.st25{fill:#F2E3B8;}
	.st26{fill:#BAA16A;}
	.st27{fill:#AF7F58;}
	.st28{fill:#513723;}
	.st29{fill:#FCF3DB;}
	.st30{fill:#AA7B53;}
	.st31{fill:#AA9261;}
</style>
<path class="st9" d="M47.5,53h-37c-3,0-5.5-2.5-5.5-5.5v-37C5,7.5,7.5,5,10.5,5h37c3,0,5.5,2.5,5.5,5.5v37C53,50.5,50.5,53,47.5,53z
	"/>
<polygon class="st20" points="47,49 47,12.8 50,10 50,48 "/>
<polygon class="st27" points="11,46.1 11,12.8 8,10 8,49 "/>
<polygon class="st20" points="50,47 11.9,47 9,50 49,50 "/>
<polygon class="st27" points="12.1,11 47,11 50,8 8,8 "/>
<rect x="5" y="23" class="st9" width="48" height="12"/>
<g>
	<g>
		<path class="st22" d="M10,32l-1.8-5.7h0.7l1.2,4.2c0.1,0.3,0.2,0.6,0.2,0.9c0.1-0.3,0.2-0.6,0.3-0.9l1.3-4.2h0.6L10.7,32H10z"/>
		<path class="st22" d="M13.4,29.2c0-1,0.2-1.7,0.6-2.3s1-0.8,1.6-0.8c0.4,0,0.8,0.1,1.1,0.4c0.3,0.2,0.6,0.6,0.8,1s0.3,1,0.3,1.6
			c0,0.8-0.2,1.5-0.6,2.1c-0.4,0.6-1,0.9-1.7,0.9c-0.7,0-1.3-0.3-1.7-0.9C13.6,30.6,13.4,30,13.4,29.2z M14,29.2
			c0,0.7,0.2,1.3,0.5,1.6c0.3,0.4,0.7,0.6,1.1,0.6c0.5,0,0.8-0.2,1.1-0.6c0.3-0.4,0.5-1,0.5-1.7c0-0.5-0.1-0.9-0.2-1.3
			c-0.1-0.3-0.3-0.5-0.6-0.7s-0.5-0.3-0.8-0.3c-0.5,0-0.9,0.2-1.2,0.6C14.2,27.8,14,28.4,14,29.2z"/>
		<path class="st22" d="M19.2,32v-5.7h0.6v5.1h2.3V32H19.2z"/>
		<path class="st22" d="M23.3,32v-5.7h0.6v5.1h2.3V32H23.3z"/>
		<path class="st22" d="M27.5,32v-5.7h0.9l1.1,4.1l0.2,0.8c0.1-0.2,0.1-0.5,0.3-0.9l1.1-4H32V32h-0.6v-4.8L30,32h-0.6l-1.4-4.9V32
			H27.5z"/>
		<path class="st22" d="M33.6,32v-5.7h0.6V32H33.6z"/>
		<path class="st22" d="M36.1,32v-5.7h0.6v5.1h2.3V32H36.1z"/>
		<path class="st22" d="M43.7,30l0.6,0.2c-0.1,0.6-0.4,1.1-0.7,1.4s-0.8,0.5-1.3,0.5c-0.4,0-0.8-0.1-1.1-0.3c-0.3-0.2-0.6-0.6-0.8-1
			s-0.3-1-0.3-1.7c0-0.6,0.1-1.2,0.3-1.6c0.2-0.4,0.5-0.8,0.8-1s0.7-0.3,1.1-0.3c0.5,0,0.8,0.1,1.2,0.4c0.3,0.3,0.6,0.7,0.7,1.2
			L43.6,28c-0.2-0.8-0.6-1.2-1.3-1.2c-0.3,0-0.6,0.1-0.8,0.2s-0.4,0.4-0.5,0.7s-0.2,0.8-0.2,1.3c0,0.8,0.1,1.4,0.4,1.8
			c0.3,0.4,0.6,0.6,1.1,0.6c0.3,0,0.6-0.1,0.9-0.4S43.6,30.5,43.7,30z"/>
		<path class="st22" d="M45.6,32v-5.7h0.6v2.4h2.4v-2.4h0.6V32h-0.6v-2.7h-2.4V32H45.6z"/>
	</g>
</g>
</svg>
