<?xml version="1.0" encoding="utf-8"?>
<!-- Generator: Adobe Illustrator 19.1.0, SVG Export Plug-In . SVG Version: 6.00 Build 0)  -->
<svg version="1.1" id="Ebene_1" xmlns="http://www.w3.org/2000/svg" xmlns:xlink="http://www.w3.org/1999/xlink" x="0px" y="0px"
	 width="58px" height="58px" viewBox="0 0 58 58" style="enable-background:new 0 0 58 58;" xml:space="preserve">
<style type="text/css">
	.st0{fill:#C7D5F6;}
	.st1{fill:url(#SVGID_1_);}
	.st2{fill-rule:evenodd;clip-rule:evenodd;fill:#FFFFFF;}
	.st3{fill:#69738B;}
	.st4{fill:#F5D34F;}
	.st5{fill:url(#SVGID_2_);}
	.st6{fill:#94780A;}
	.st7{fill:#C69C6D;}
	.st8{fill:url(#SVGID_3_);}
	.st9{fill:#8C6239;}
	.st10{fill:#C0DD51;}
	.st11{fill:url(#SVGID_4_);}
	.st12{fill:#FFFFFF;}
	.st13{fill:#637C25;}
	.st14{fill:url(#SVGID_5_);}
	.st15{fill:#6AB125;}
	.st16{fill:url(#SVGID_6_);}
	.st17{fill:#436B18;}
	.st18{fill:#67AD30;}
	.st19{fill:url(#SVGID_7_);}
	.st20{fill:#603813;}
	.st21{fill:#42210B;}
	.st22{fill:#3A2513;}
	.st23{fill:#1C120B;}
	.st24{fill:#6D4F3B;}
	.st25{fill:#F2E3B8;}
	.st26{fill:#BAA16A;}
	.st27{fill:#AF7F58;}
	.st28{fill:#513723;}
	.st29{fill:#FCF3DB;}
	.st30{fill:#AA7B53;}
	.st31{fill:#AA9261;}
</style>
<path class="st22" d="M47.5,53h-37c-3,0-5.5-2.5-5.5-5.5v-37C5,7.5,7.5,5,10.5,5h37c3,0,5.5,2.5,5.5,5.5v37C53,50.5,50.5,53,47.5,53
	z"/>
<polygon class="st23" points="47,49 47,12.8 50,10 50,48 "/>
<polygon class="st28" points="11,46.1 11,12.8 8,10 8,49 "/>
<polygon class="st23" points="50,47 11.9,47 9,50 49,50 "/>
<polygon class="st28" points="12.1,11 47,11 50,8 8,8 "/>
<rect x="5" y="23" class="st22" width="48" height="12"/>
<g>
	<g>
		<path class="st30" d="M6.6,32v-0.7L9,27.6c0.2-0.3,0.3-0.5,0.5-0.7H6.9v-0.7h3.4v0.7l-2.6,4l-0.3,0.4h3V32H6.6z"/>
		<path class="st30" d="M11,32l1.8-5.7h0.7l1.9,5.7h-0.7l-0.5-1.7h-2L11.7,32H11z M12.4,29.6H14l-0.5-1.6c-0.2-0.5-0.3-0.9-0.3-1.2
			c-0.1,0.4-0.1,0.7-0.3,1.1L12.4,29.6z"/>
		<path class="st30" d="M16.4,32v-5.7h2.1c0.4,0,0.8,0.1,1,0.2s0.4,0.3,0.5,0.5c0.1,0.2,0.2,0.5,0.2,0.9c0,0.4-0.1,0.8-0.3,1
			c-0.2,0.3-0.6,0.4-1,0.5c0.2,0.1,0.3,0.2,0.4,0.3c0.2,0.2,0.3,0.5,0.5,0.7l0.8,1.6h-0.8l-0.6-1.2c-0.2-0.5-0.4-0.8-0.5-0.9
			c-0.1-0.2-0.2-0.3-0.4-0.3c-0.1-0.1-0.3-0.1-0.5-0.1H17V32H16.4z M17,28.8h1.3c0.3,0,0.5,0,0.7-0.1c0.2-0.1,0.3-0.2,0.4-0.3
			c0.1-0.2,0.1-0.3,0.1-0.5c0-0.3-0.1-0.5-0.3-0.7c-0.2-0.2-0.4-0.2-0.8-0.2H17V28.8z"/>
		<path class="st30" d="M22.8,32v-5.1h-1.5v-0.7h3.7v0.7h-1.6V32H22.8z"/>
		<path class="st30" d="M26.1,32v-5.7h1.8c0.4,0,0.6,0.1,0.8,0.2c0.2,0.1,0.4,0.3,0.5,0.5c0.1,0.2,0.2,0.5,0.2,0.8
			c0,0.3-0.1,0.5-0.2,0.7c-0.1,0.2-0.3,0.4-0.5,0.5c0.3,0.1,0.5,0.3,0.6,0.5s0.2,0.5,0.2,0.9c0,0.3-0.1,0.7-0.2,0.9
			c-0.1,0.3-0.3,0.5-0.6,0.6c-0.2,0.1-0.6,0.2-1,0.2H26.1z M26.7,28.7h1c0.3,0,0.5,0,0.6-0.1c0.2-0.1,0.3-0.1,0.4-0.3
			c0.1-0.1,0.1-0.3,0.1-0.5c0-0.2,0-0.4-0.1-0.5c-0.1-0.1-0.2-0.2-0.3-0.3s-0.4-0.1-0.7-0.1h-0.9V28.7z M26.7,31.3h1.2
			c0.3,0,0.4,0,0.6-0.1c0.2-0.1,0.3-0.2,0.4-0.3s0.1-0.3,0.1-0.6c0-0.2,0-0.4-0.1-0.5s-0.2-0.3-0.4-0.3c-0.1-0.1-0.4-0.1-0.7-0.1
			h-1.1V31.3z"/>
		<path class="st30" d="M31.1,32v-5.7h0.6V32H31.1z"/>
		<path class="st30" d="M34.5,32v-5.1H33v-0.7h3.7v0.7h-1.6V32H34.5z"/>
		<path class="st30" d="M39.1,32v-5.1h-1.5v-0.7h3.7v0.7h-1.6V32H39.1z"/>
		<path class="st30" d="M42.4,32v-5.7h3.4v0.7H43v1.8h2.6v0.7H43v1.9h2.9V32H42.4z"/>
		<path class="st30" d="M47.3,32v-5.7h2.1c0.4,0,0.8,0.1,1,0.2s0.4,0.3,0.5,0.5c0.1,0.2,0.2,0.5,0.2,0.9c0,0.4-0.1,0.8-0.3,1
			c-0.2,0.3-0.6,0.4-1,0.5c0.2,0.1,0.3,0.2,0.4,0.3c0.2,0.2,0.3,0.5,0.5,0.7l0.8,1.6h-0.8L50,30.8c-0.2-0.5-0.4-0.8-0.5-0.9
			c-0.1-0.2-0.2-0.3-0.4-0.3c-0.1-0.1-0.3-0.1-0.5-0.1h-0.7V32H47.3z M47.9,28.8h1.3c0.3,0,0.5,0,0.7-0.1s0.3-0.2,0.4-0.3
			s0.1-0.3,0.1-0.5c0-0.3-0.1-0.5-0.3-0.7s-0.4-0.2-0.8-0.2h-1.5V28.8z"/>
	</g>
</g>
</svg>
