<?xml version="1.0" encoding="utf-8"?>
<!-- Generator: Adobe Illustrator 19.1.0, SVG Export Plug-In . SVG Version: 6.00 Build 0)  -->
<svg version="1.1" id="Ebene_1" xmlns="http://www.w3.org/2000/svg" xmlns:xlink="http://www.w3.org/1999/xlink" x="0px" y="0px"
	 width="58px" height="58px" viewBox="0 0 58 58" style="enable-background:new 0 0 58 58;" xml:space="preserve">
<style type="text/css">
	.st0{fill:#C7D5F6;}
	.st1{fill:url(#SVGID_1_);}
	.st2{fill-rule:evenodd;clip-rule:evenodd;fill:#FFFFFF;}
	.st3{fill:#69738B;}
	.st4{fill:#F5D34F;}
	.st5{fill:url(#SVGID_2_);}
	.st6{fill:#94780A;}
	.st7{fill:#C69C6D;}
	.st8{fill:url(#SVGID_3_);}
	.st9{fill:#8C6239;}
	.st10{fill:#C0DD51;}
	.st11{fill:url(#SVGID_4_);}
	.st12{fill:#FFFFFF;}
	.st13{fill:#637C25;}
	.st14{fill:url(#SVGID_5_);}
	.st15{fill:#6AB125;}
	.st16{fill:url(#SVGID_6_);}
	.st17{fill:#436B18;}
	.st18{fill:#67AD30;}
	.st19{fill:url(#SVGID_7_);}
	.st20{fill:#603813;}
	.st21{fill:#42210B;}
	.st22{fill:#3A2513;}
	.st23{fill:#1C120B;}
	.st24{fill:#6D4F3B;}
	.st25{fill:#F2E3B8;}
	.st26{fill:#BAA16A;}
	.st27{fill:#AF7F58;}
	.st28{fill:#513723;}
	.st29{fill:#FCF3DB;}
	.st30{fill:#AA9261;}
</style>
<circle class="st10" cx="29" cy="29" r="29"/>
<radialGradient id="SVGID_1_" cx="29" cy="29" r="24" gradientUnits="userSpaceOnUse">
	<stop  offset="0.6875" style="stop-color:#00B9E4"/>
	<stop  offset="0.7521" style="stop-color:#01B4DC"/>
	<stop  offset="0.8506" style="stop-color:#04A5C7"/>
	<stop  offset="0.9701" style="stop-color:#0A8EA5"/>
	<stop  offset="1" style="stop-color:#0B879B"/>
</radialGradient>
<path class="st1" d="M29,53C15.8,53,5,42.2,5,29C5,15.8,15.8,5,29,5c13.2,0,24,10.8,24,24C53,42.2,42.2,53,29,53z"/>
<path class="st12" d="M18,34.1c0,0,0.6-9,2-10c1.4-0.9,5.3-1.9,5.3-1.9s2.6,2.8,3.7,2.8c1.1,0,3.7-2.7,3.7-2.7s4,0.8,5.3,1.7
	c1.6,1.1,2,10,2,10H18z M29.1,20.9c-3.1,0-5.6-2.9-5.6-6.5c0-3.6,2.5-6.5,5.6-6.5c3.1,0,5.6,2.9,5.6,6.5
	C34.7,18,32.2,20.9,29.1,20.9z"/>
<polygon class="st10" points="47,49.3 10,49.3 1,30.3 57,30.3 "/>
<g>
	<g>
		<path class="st13" d="M21.2,38.2v-5.7h3.2v0.7h-2.5v1.8H24v0.7h-2.2v2.6H21.2z"/>
		<path class="st13" d="M24.8,38.2l1.8-5.7h0.7l1.9,5.7h-0.7L28,36.4h-2l-0.5,1.7H24.8z M26.2,35.8h1.6l-0.5-1.6
			C27.1,33.7,27,33.3,27,33c-0.1,0.4-0.1,0.7-0.3,1.1L26.2,35.8z"/>
		<path class="st13" d="M30.4,38.2v-5.7H31v5.7H30.4z"/>
		<path class="st13" d="M32.6,38.2v-5.7h2.1c0.4,0,0.8,0.1,1,0.2s0.4,0.3,0.5,0.5c0.1,0.2,0.2,0.5,0.2,0.9c0,0.4-0.1,0.8-0.3,1.1
			c-0.2,0.3-0.6,0.4-1,0.5c0.2,0.1,0.3,0.2,0.4,0.3c0.2,0.2,0.3,0.5,0.5,0.7l0.8,1.6h-0.8L35.3,37c-0.2-0.5-0.4-0.8-0.5-0.9
			c-0.1-0.2-0.2-0.3-0.4-0.3c-0.1-0.1-0.3-0.1-0.5-0.1h-0.7v2.5H32.6z M33.2,35h1.3c0.3,0,0.5,0,0.7-0.1s0.3-0.2,0.4-0.3
			s0.1-0.3,0.1-0.5c0-0.3-0.1-0.5-0.3-0.7s-0.4-0.2-0.8-0.2h-1.5V35z"/>
		<path class="st13" d="M18.3,47.2v-5.1h-1.5v-0.7h3.7v0.7h-1.6v5.1H18.3z"/>
		<path class="st13" d="M21.6,47.2v-5.7h2.1c0.4,0,0.8,0.1,1,0.2s0.4,0.3,0.5,0.5c0.1,0.2,0.2,0.5,0.2,0.9c0,0.4-0.1,0.8-0.3,1
			c-0.2,0.3-0.6,0.4-1,0.5c0.2,0.1,0.3,0.2,0.4,0.3c0.2,0.2,0.3,0.5,0.5,0.7l0.8,1.6H25L24.4,46c-0.2-0.5-0.4-0.8-0.5-0.9
			c-0.1-0.2-0.2-0.3-0.4-0.3c-0.1-0.1-0.3-0.1-0.5-0.1h-0.7v2.5H21.6z M22.2,44h1.3c0.3,0,0.5,0,0.7-0.1c0.2-0.1,0.3-0.2,0.4-0.3
			c0.1-0.2,0.1-0.3,0.1-0.5c0-0.3-0.1-0.5-0.3-0.7c-0.2-0.2-0.4-0.2-0.8-0.2h-1.5V44z"/>
		<path class="st13" d="M26.4,47.2l1.8-5.7h0.7l1.9,5.7H30l-0.5-1.7h-2L27,47.2H26.4z M27.7,44.8h1.6l-0.5-1.6
			c-0.2-0.5-0.3-0.9-0.3-1.2c-0.1,0.4-0.1,0.7-0.3,1.1L27.7,44.8z"/>
		<path class="st13" d="M31.8,47.2v-5.7h1.6c0.4,0,0.7,0,0.9,0.1c0.3,0.1,0.5,0.3,0.7,0.5s0.4,0.5,0.5,0.9s0.2,0.8,0.2,1.3
			c0,0.6-0.1,1.2-0.3,1.7s-0.4,0.8-0.7,1s-0.7,0.3-1.2,0.3H31.8z M32.4,46.5h1c0.4,0,0.7-0.1,0.9-0.2s0.4-0.3,0.5-0.6
			c0.1-0.4,0.2-0.9,0.2-1.4c0-0.6-0.1-1-0.2-1.4s-0.4-0.6-0.6-0.7c-0.2-0.1-0.4-0.1-0.8-0.1h-1V46.5z"/>
		<path class="st13" d="M37,47.2v-5.7h3.4v0.7h-2.8v1.8h2.6v0.7h-2.6v1.9h2.9v0.7H37z"/>
	</g>
</g>
</svg>
