<?xml version="1.0" encoding="utf-8"?>
<!-- Generator: Adobe Illustrator 19.1.0, SVG Export Plug-In . SVG Version: 6.00 Build 0)  -->
<svg version="1.1" id="Ebene_1" xmlns="http://www.w3.org/2000/svg" xmlns:xlink="http://www.w3.org/1999/xlink" x="0px" y="0px"
	 width="58px" height="58px" viewBox="0 0 58 58" style="enable-background:new 0 0 58 58;" xml:space="preserve">
<style type="text/css">
	.st0{fill:#C7D5F6;}
	.st1{fill:url(#SVGID_1_);}
	.st2{fill-rule:evenodd;clip-rule:evenodd;fill:#FFFFFF;}
	.st3{fill:#69738B;}
	.st4{fill:#F5D34F;}
	.st5{fill:url(#SVGID_2_);}
	.st6{fill:#94780A;}
	.st7{fill:#C69C6D;}
	.st8{fill:url(#SVGID_3_);}
	.st9{fill:#8C6239;}
	.st10{fill:#C0DD51;}
	.st11{fill:url(#SVGID_4_);}
	.st12{fill:#FFFFFF;}
	.st13{fill:#637C25;}
	.st14{fill:url(#SVGID_5_);}
	.st15{fill:#6AB125;}
	.st16{fill:url(#SVGID_6_);}
	.st17{fill:#436B18;}
	.st18{fill:#67AD30;}
	.st19{fill:url(#SVGID_7_);}
	.st20{fill:#603813;}
	.st21{fill:#42210B;}
	.st22{fill:#3A2513;}
	.st23{fill:#1C120B;}
	.st24{fill:#6D4F3B;}
	.st25{fill:#F2E3B8;}
	.st26{fill:#BAA16A;}
	.st27{fill:#AF7F58;}
	.st28{fill:#513723;}
	.st29{fill:#FCF3DB;}
	.st30{fill:#AA9261;}
</style>
<circle class="st4" cx="29" cy="29" r="29"/>
<radialGradient id="SVGID_1_" cx="29" cy="29" r="24" gradientUnits="userSpaceOnUse">
	<stop  offset="0.6875" style="stop-color:#F5D34F"/>
	<stop  offset="0.7568" style="stop-color:#EFCD47"/>
	<stop  offset="0.8625" style="stop-color:#DFBC32"/>
	<stop  offset="0.9908" style="stop-color:#C5A010"/>
	<stop  offset="1" style="stop-color:#C39E0D"/>
</radialGradient>
<path class="st1" d="M29,53C15.8,53,5,42.2,5,29C5,15.8,15.8,5,29,5c13.2,0,24,10.8,24,24C53,42.2,42.2,53,29,53z"/>
<g>
	<path class="st2" d="M31.3,29.2c-0.4,0-0.8-0.1-1.1-0.3v2.3h-2v-2.3c-0.3,0.2-0.7,0.3-1.1,0.3c-0.9-0.1-4.6-0.6-3.7-8
		c2.9,4.5,4.1,4,4.9,4.6c0.6,0.4,0.9,0.9,0.9,1.4h0c0-0.5,0.3-1,0.9-1.4c0.8-0.6,2-0.1,4.9-4.6C35.9,28.6,32.2,29.1,31.3,29.2z
		 M31,23.2c-1.3,0.2-2.7-2.1-1-3.4c0.6-0.7,1.9-0.1,4.1-4.6C34.8,22.6,31.7,23.1,31,23.2z M29.2,17.2c0,0-3-0.7-3-4s3-5,3-5
		s3,1.7,3,5C32.2,16.5,29.2,17.2,29.2,17.2z M27.4,23.2c-0.8-0.1-3.9-0.6-3.1-8c2.2,4.5,3.6,3.8,4.1,4.6
		C30.1,21.1,28.7,23.4,27.4,23.2z"/>
	<path class="st2" d="M40.1,30.3c-0.3-0.1-0.5-0.3-0.7-0.6l-0.8,1.6l-1.3-0.7l0.8-1.6c-0.3,0-0.6,0-0.9-0.2c-0.6-0.4-2.9-2,0.3-6.8
		c0.4,4.1,1.4,4.1,1.7,4.9c0.3,0.5,0.3,1,0.1,1.3l0,0c0.2-0.3,0.6-0.6,1.1-0.7c0.8-0.1,1.4,0.6,4.9-1.6
		C43.4,31.4,40.7,30.5,40.1,30.3z M42.3,25.3c-1-0.3-1.2-2.2,0.4-2.4c0.6-0.3,1.3,0.6,4.2-1.4C45.1,26.2,42.9,25.5,42.3,25.3z
		 M42.9,21.2c0,0-1.8-1.5-0.6-3.8c1.1-2.3,3.8-2.5,3.8-2.5s1.4,2.2,0.3,4.5C45.1,21.7,42.9,21.2,42.9,21.2z M39.9,24.1
		c-0.5-0.3-2.4-1.7,0.3-5.9c0.1,3.5,1.2,3.5,1.4,4.2C42.4,23.7,40.8,24.7,39.9,24.1z"/>
	<path class="st2" d="M17.9,30.2c0.3-0.1,0.5-0.3,0.7-0.5l0.8,1.5l1.4-0.7L19.9,29c0.3,0,0.6,0,0.9-0.2c0.6-0.4,2.9-1.9-0.3-6.7
		c-0.4,4-1.4,4-1.7,4.7c-0.3,0.5-0.3,0.9-0.1,1.3l0,0c-0.2-0.3-0.6-0.6-1.1-0.7c-0.8-0.1-1.4,0.6-4.9-1.5
		C14.6,31.3,17.3,30.4,17.9,30.2z M15.7,25.3c1-0.3,1.2-2.1-0.4-2.4c-0.6-0.2-1.3,0.6-4.2-1.4C12.9,26.2,15.1,25.5,15.7,25.3z
		 M15.2,21.3c0,0,1.8-1.5,0.6-3.7c-1.1-2.2-3.8-2.4-3.8-2.4s-1.4,2.1-0.3,4.4C12.9,21.8,15.2,21.3,15.2,21.3z M18.1,24.2
		c0.5-0.3,2.5-1.6-0.3-5.8c-0.1,3.4-1.2,3.5-1.4,4.1C15.7,23.8,17.3,24.7,18.1,24.2z"/>
</g>
<polygon class="st4" points="47,49.3 10,49.3 1,30.3 57,30.3 "/>
<g>
	<path class="st6" d="M16.9,35.9v-0.7l2,0v2.1c-0.3,0.3-0.6,0.5-0.9,0.7c-0.3,0.1-0.7,0.2-1,0.2c-0.5,0-0.9-0.1-1.2-0.3
		s-0.6-0.6-0.9-1c-0.2-0.4-0.3-1-0.3-1.6c0-0.6,0.1-1.2,0.3-1.6s0.5-0.8,0.8-1c0.3-0.2,0.7-0.3,1.2-0.3c0.3,0,0.6,0.1,0.9,0.2
		s0.5,0.3,0.6,0.5c0.2,0.2,0.3,0.6,0.4,1l-0.6,0.2c-0.1-0.3-0.2-0.6-0.3-0.7c-0.1-0.2-0.3-0.3-0.5-0.4S17.1,33,16.8,33
		c-0.3,0-0.6,0.1-0.9,0.2c-0.2,0.2-0.4,0.4-0.6,0.8c-0.2,0.3-0.2,0.8-0.2,1.3c0,0.8,0.2,1.3,0.5,1.7c0.3,0.4,0.7,0.6,1.3,0.6
		c0.2,0,0.5-0.1,0.8-0.2c0.3-0.1,0.5-0.3,0.6-0.4v-1.1H16.9z"/>
	<path class="st6" d="M20.2,38.2v-5.7h0.6v5.1h2.3v0.7H20.2z"/>
	<path class="st6" d="M27.5,32.4h0.6v3.3c0,0.6-0.1,1-0.2,1.4c-0.1,0.4-0.3,0.6-0.6,0.8c-0.3,0.2-0.6,0.3-1.1,0.3
		c-0.6,0-1.1-0.2-1.4-0.6c-0.3-0.4-0.5-1-0.5-2v-3.3h0.6v3.3c0,0.5,0,0.9,0.1,1.1c0.1,0.2,0.2,0.4,0.4,0.5s0.4,0.2,0.7,0.2
		c0.4,0,0.8-0.1,1-0.4s0.3-0.7,0.3-1.5V32.4z"/>
	<path class="st6" d="M30.9,38.2v-5.1h-1.5v-0.7h3.7v0.7h-1.6v5.1H30.9z"/>
	<path class="st6" d="M34.2,38.2v-5.7h3.4v0.7h-2.8v1.8h2.6v0.7h-2.6v1.9h2.9v0.7H34.2z"/>
	<path class="st6" d="M39.1,38.2v-5.7h0.6l2.5,4.5v-4.5h0.6v5.7h-0.6l-2.5-4.5v4.5H39.1z"/>
	<path class="st6" d="M21,47.2v-5.7h3.2v0.7h-2.5v1.8h2.2v0.7h-2.2v2.6H21z"/>
	<path class="st6" d="M25.5,47.2v-5.7h2.1c0.4,0,0.8,0.1,1,0.2s0.4,0.3,0.5,0.5c0.1,0.2,0.2,0.5,0.2,0.9c0,0.4-0.1,0.8-0.3,1
		c-0.2,0.3-0.6,0.4-1,0.5c0.2,0.1,0.3,0.2,0.4,0.3c0.2,0.2,0.3,0.5,0.5,0.7l0.8,1.6h-0.8L28.3,46c-0.2-0.5-0.4-0.8-0.5-0.9
		c-0.1-0.2-0.2-0.3-0.4-0.3c-0.1-0.1-0.3-0.1-0.5-0.1h-0.7v2.5H25.5z M26.1,44h1.3c0.3,0,0.5,0,0.7-0.1s0.3-0.2,0.4-0.3
		s0.1-0.3,0.1-0.5c0-0.3-0.1-0.5-0.3-0.7s-0.4-0.2-0.8-0.2h-1.5V44z"/>
	<path class="st6" d="M30.8,47.2v-5.7h3.4v0.7h-2.8v1.8H34v0.7h-2.6v1.9h2.9v0.7H30.8z"/>
	<path class="st6" d="M35.8,47.2v-5.7h0.6v5.7H35.8z"/>
</g>
</svg>
