<?xml version="1.0" encoding="utf-8"?>
<!-- Generator: Adobe Illustrator 19.1.0, SVG Export Plug-In . SVG Version: 6.00 Build 0)  -->
<svg version="1.1" id="Ebene_1" xmlns="http://www.w3.org/2000/svg" xmlns:xlink="http://www.w3.org/1999/xlink" x="0px" y="0px"
	 width="58px" height="58px" viewBox="0 0 58 58" style="enable-background:new 0 0 58 58;" xml:space="preserve">
<style type="text/css">
	.st0{fill:#C7D5F6;}
	.st1{fill:url(#SVGID_1_);}
	.st2{fill-rule:evenodd;clip-rule:evenodd;fill:#FFFFFF;}
	.st3{fill:#69738B;}
	.st4{fill:#F5D34F;}
	.st5{fill:url(#SVGID_2_);}
	.st6{fill:#94780A;}
	.st7{fill:#C69C6D;}
	.st8{fill:url(#SVGID_3_);}
	.st9{fill:#8C6239;}
	.st10{fill:#C0DD51;}
	.st11{fill:url(#SVGID_4_);}
	.st12{fill:#FFFFFF;}
	.st13{fill:#637C25;}
	.st14{fill:url(#SVGID_5_);}
	.st15{fill:#6AB125;}
	.st16{fill:url(#SVGID_6_);}
	.st17{fill:#436B18;}
	.st18{fill:#67AD30;}
	.st19{fill:url(#SVGID_7_);}
	.st20{fill:#603813;}
	.st21{fill:#42210B;}
	.st22{fill:#3A2513;}
	.st23{fill:#1C120B;}
	.st24{fill:#6D4F3B;}
	.st25{fill:#F2E3B8;}
	.st26{fill:#BAA16A;}
	.st27{fill:#AF7F58;}
	.st28{fill:#513723;}
	.st29{fill:#FCF3DB;}
	.st30{fill:#AA9261;}
</style>
<circle class="st0" cx="29" cy="29" r="29"/>
<radialGradient id="SVGID_1_" cx="29" cy="29" r="24" gradientUnits="userSpaceOnUse">
	<stop  offset="0.6875" style="stop-color:#C7D5F6"/>
	<stop  offset="0.7662" style="stop-color:#BFCDEE"/>
	<stop  offset="0.8859" style="stop-color:#AAB8D9"/>
	<stop  offset="1" style="stop-color:#909EBF"/>
</radialGradient>
<path class="st1" d="M29,53C15.8,53,5,42.2,5,29C5,15.8,15.8,5,29,5c13.2,0,24,10.8,24,24C53,42.2,42.2,53,29,53z"/>
<g>
	<path class="st2" d="M20.7,15.2c0.7,0,1.5,0.2,2.2,0.3c0.9,0.2,1.9,0.2,2.8,0.4c3.9,0,7.9,0,11.8,0c1.8,0,5.7-0.4,6.7,0.4
		c0.7,0.6,0.8,1.8,0.8,3.1c0,2,0,3.9,0,5.9c0.2,0.1,0.4,0.4,0.5,0.7c-0.3,0.4-0.3,0.9-0.4,1.4c-0.1,0.3-0.3,0.7-0.4,1.1
		c-0.1-0.1,0,0-0.1-0.1c-1.4-1.5-0.2-6.2-0.7-8.7c-0.1-0.6,0.2-1.5-0.1-1.9c-0.1-0.3-0.4-0.4-0.6-0.6c-0.2,0-0.4,0-0.6,0.1
		c0,0,0,0.1,0,0.1c0.6,0.7,0.4,3.5,0.4,4.9c0,4.4,0,8.8,0.1,13.2c-0.5,0.2-1.4,0.1-2,0.1c0.1-0.5,0.3-0.9,0.4-1.4
		c0.6-2.6-1.1-4.6-1.9-5.9c0,0,0,0-0.1,0c-1,2.4-2,4.9-3,7.3c-0.6,0-1.2,0-1.8,0c0,0,0,0,0-0.1c1.4-1.4,1.9-4.6,1.1-6.9
		c-0.3-0.7-0.5-1.7-1.4-1.7c-0.4,0.3-1,0.1-1.5,0.3c-1.2,0.3-2.5,0.5-3.8,0.7c0,0,0,0.1,0,0.1c0.3,0.5,0.1,1.8,0.2,2.5
		c0.1,0.5,0,1.1,0.1,1.7c0.2,1,0.3,2.2,0.3,3.4c-0.6,0-1.2,0-1.8,0c0.2-1.6,0.4-3.2-0.2-4.6c-0.3-0.7-0.9-1.5-1.1-2.1
		c-0.1,0.1,0,0-0.1,0.1c-0.3,0.5-0.1,1.4-0.3,2.1c-0.3,1.4-0.5,3-0.6,4.5c-0.7,0-1.3,0-2,0c0.1-0.4,0.3-0.8,0.4-1.1
		c0.2-0.7,0.3-1.6,0.4-2.3c0.2-0.9,0-2.1-0.2-2.7c-0.5-2-1.1-3.3-2.1-4.7c-0.3-0.4-0.8-0.8-1.1-1.3c-0.4-0.6-0.9-1-1.3-1.5
		c-0.1-0.2-0.4-0.7-0.6-0.8c-1.8,0-3.7,0-5.5,0c-0.5-0.5-1.3-0.8-1.2-1.6c0.3-0.2,0.5-0.6,0.8-0.9c0.3-0.3,0.7-0.7,1-1
		c0.6-0.6,1.1-1.2,1.7-1.9c0.4-0.3,1.2-0.9,1.4-1.4c-0.5-0.1-0.9-0.4-1.2-0.7c-0.6-0.4-1.3-0.5-1.8-0.9c1.3,0,2.7,0,4,0
		c0.3,0.5,0.8,0.8,1.1,1.3c0,0,0,0,0.1,0c0,0,0,0,0-0.1c0.4-0.3,0.6-0.8,1.1-1c0.1,0.1,0.1,0.1,0.1,0.3
		C21.3,13.6,20.8,14.7,20.7,15.2z"/>
</g>
<polygon class="st0" points="47,49.3 10,49.3 1,30.3 57,30.3 "/>
<g>
	<path class="st3" d="M12.6,38.2v-5.7h0.6v5.1h2.3v0.7H12.6z"/>
	<path class="st3" d="M16.3,38.2l1.8-5.7h0.7l1.9,5.7H20l-0.5-1.7h-2l-0.5,1.7H16.3z M17.6,35.8h1.6l-0.5-1.6
		c-0.2-0.5-0.3-0.9-0.3-1.2c-0.1,0.4-0.1,0.7-0.3,1.1L17.6,35.8z"/>
	<path class="st3" d="M21.7,38.2v-5.7h0.6v2.8l2.3-2.8h0.8l-2,2.3l2.1,3.4h-0.8L23,35.3l-0.8,0.9v2H21.7z"/>
	<path class="st3" d="M27.8,38.2v-5.1h-1.5v-0.7H30v0.7h-1.6v5.1H27.8z"/>
	<path class="st3" d="M30.8,35.4c0-1,0.2-1.7,0.6-2.3s1-0.8,1.6-0.8c0.4,0,0.8,0.1,1.1,0.4s0.6,0.6,0.8,1s0.3,1,0.3,1.6
		c0,0.8-0.2,1.5-0.6,2.1c-0.4,0.6-1,0.9-1.7,0.9c-0.7,0-1.3-0.3-1.7-0.9C31,36.8,30.8,36.2,30.8,35.4z M31.5,35.4
		c0,0.7,0.2,1.3,0.5,1.6c0.3,0.4,0.7,0.6,1.1,0.6c0.5,0,0.8-0.2,1.1-0.6c0.3-0.4,0.5-1,0.5-1.7c0-0.5-0.1-0.9-0.2-1.3
		c-0.1-0.3-0.3-0.5-0.6-0.7S33.4,33,33.1,33c-0.5,0-0.9,0.2-1.2,0.6C31.6,34,31.5,34.6,31.5,35.4z"/>
	<path class="st3" d="M36.4,36.3l0.6-0.1c0,0.3,0.1,0.6,0.2,0.7s0.3,0.3,0.5,0.4s0.4,0.2,0.7,0.2c0.4,0,0.7-0.1,0.9-0.3
		s0.3-0.4,0.3-0.7c0-0.2,0-0.3-0.1-0.4s-0.2-0.2-0.3-0.3c-0.1-0.1-0.5-0.2-1-0.3c-0.4-0.1-0.8-0.3-0.9-0.4c-0.2-0.1-0.3-0.3-0.4-0.5
		s-0.2-0.4-0.2-0.7c0-0.5,0.1-0.8,0.4-1.1s0.7-0.4,1.2-0.4c0.3,0,0.7,0.1,0.9,0.2s0.5,0.3,0.6,0.6S40,33.7,40,34l-0.6,0.1
		c0-0.4-0.1-0.6-0.3-0.8S38.6,33,38.3,33c-0.4,0-0.6,0.1-0.8,0.2s-0.3,0.4-0.3,0.6c0,0.2,0.1,0.4,0.2,0.5c0.1,0.1,0.4,0.3,0.9,0.4
		c0.5,0.1,0.8,0.2,1,0.3c0.3,0.1,0.5,0.3,0.6,0.6c0.1,0.2,0.2,0.5,0.2,0.9c0,0.3-0.1,0.6-0.2,0.9s-0.4,0.5-0.6,0.6s-0.6,0.2-1,0.2
		c-0.6,0-1-0.2-1.4-0.5S36.4,36.9,36.4,36.3z"/>
	<path class="st3" d="M41.5,38.2v-5.7h3.4v0.7h-2.8v1.8h2.6v0.7h-2.6v1.9H45v0.7H41.5z"/>
	<path class="st3" d="M21,47.2v-5.7h3.2v0.7h-2.5v1.8h2.2v0.7h-2.2v2.6H21z"/>
	<path class="st3" d="M25.5,47.2v-5.7h2.1c0.4,0,0.8,0.1,1,0.2s0.4,0.3,0.5,0.5c0.1,0.2,0.2,0.5,0.2,0.9c0,0.4-0.1,0.8-0.3,1
		c-0.2,0.3-0.6,0.4-1,0.5c0.2,0.1,0.3,0.2,0.4,0.3c0.2,0.2,0.3,0.5,0.5,0.7l0.8,1.6h-0.8L28.3,46c-0.2-0.5-0.4-0.8-0.5-0.9
		c-0.1-0.2-0.2-0.3-0.4-0.3c-0.1-0.1-0.3-0.1-0.5-0.1h-0.7v2.5H25.5z M26.1,44h1.3c0.3,0,0.5,0,0.7-0.1s0.3-0.2,0.4-0.3
		s0.1-0.3,0.1-0.5c0-0.3-0.1-0.5-0.3-0.7s-0.4-0.2-0.8-0.2h-1.5V44z"/>
	<path class="st3" d="M30.8,47.2v-5.7h3.4v0.7h-2.8v1.8H34v0.7h-2.6v1.9h2.9v0.7H30.8z"/>
	<path class="st3" d="M35.8,47.2v-5.7h0.6v5.7H35.8z"/>
</g>
</svg>
