<?xml version="1.0" encoding="utf-8"?>
<!-- Generator: Adobe Illustrator 19.1.0, SVG Export Plug-In . SVG Version: 6.00 Build 0)  -->
<svg version="1.1" id="Ebene_1" xmlns="http://www.w3.org/2000/svg" xmlns:xlink="http://www.w3.org/1999/xlink" x="0px" y="0px"
	 width="58px" height="58px" viewBox="0 0 58 58" style="enable-background:new 0 0 58 58;" xml:space="preserve">
<style type="text/css">
	.st0{fill:#C7D5F6;}
	.st1{fill:url(#SVGID_1_);}
	.st2{fill-rule:evenodd;clip-rule:evenodd;fill:#FFFFFF;}
	.st3{fill:#69738B;}
	.st4{fill:#F5D34F;}
	.st5{fill:url(#SVGID_2_);}
	.st6{fill:#94780A;}
	.st7{fill:#C69C6D;}
	.st8{fill:url(#SVGID_3_);}
	.st9{fill:#8C6239;}
	.st10{fill:#C0DD51;}
	.st11{fill:url(#SVGID_4_);}
	.st12{fill:#FFFFFF;}
	.st13{fill:#637C25;}
	.st14{fill:url(#SVGID_5_);}
	.st15{fill:#6AB125;}
	.st16{fill:url(#SVGID_6_);}
	.st17{fill:#436B18;}
	.st18{fill:#67AD30;}
	.st19{fill:url(#SVGID_7_);}
	.st20{fill:#603813;}
	.st21{fill:#42210B;}
	.st22{fill:#3A2513;}
	.st23{fill:#1C120B;}
	.st24{fill:#6D4F3B;}
	.st25{fill:#F2E3B8;}
	.st26{fill:#BAA16A;}
	.st27{fill:#AF7F58;}
	.st28{fill:#513723;}
	.st29{fill:#FCF3DB;}
	.st30{fill:#AA9261;}
</style>
<circle class="st18" cx="29" cy="29" r="29"/>
<radialGradient id="SVGID_1_" cx="29" cy="29" r="24" gradientUnits="userSpaceOnUse">
	<stop  offset="0.6875" style="stop-color:#FFFFFF"/>
	<stop  offset="0.7705" style="stop-color:#F7F7F7"/>
	<stop  offset="0.8967" style="stop-color:#E2E2E2"/>
	<stop  offset="1" style="stop-color:#CCCCCC"/>
</radialGradient>
<path class="st1" d="M29,53C15.8,53,5,42.2,5,29C5,15.8,15.8,5,29,5c13.2,0,24,10.8,24,24C53,42.2,42.2,53,29,53z"/>
<polygon class="st18" points="47,49.3 10,49.3 1,30.3 57,30.3 "/>
<g>
	<g>
		<path class="st12" d="M20.9,43v-7.9h2.4c0.5,0,0.9,0.1,1.2,0.2c0.3,0.2,0.5,0.4,0.7,0.7s0.3,0.7,0.3,1.1c0,0.4-0.1,0.7-0.2,1
			c-0.2,0.3-0.4,0.5-0.7,0.7c0.4,0.1,0.7,0.4,0.9,0.7s0.3,0.7,0.3,1.2c0,0.5-0.1,0.9-0.3,1.3c-0.2,0.4-0.5,0.6-0.8,0.8
			c-0.3,0.2-0.8,0.2-1.3,0.2H20.9z M21.8,38.4h1.4c0.4,0,0.6,0,0.8-0.1c0.2-0.1,0.4-0.2,0.5-0.4c0.1-0.2,0.2-0.4,0.2-0.7
			c0-0.3-0.1-0.5-0.2-0.7c-0.1-0.2-0.3-0.3-0.4-0.4c-0.2-0.1-0.5-0.1-1-0.1h-1.3V38.4z M21.8,42.1h1.6c0.4,0,0.6,0,0.8-0.1
			c0.2-0.1,0.4-0.2,0.6-0.5c0.1-0.2,0.2-0.5,0.2-0.8c0-0.3-0.1-0.5-0.2-0.8s-0.3-0.4-0.5-0.5s-0.5-0.1-1-0.1h-1.5V42.1z"/>
		<path class="st12" d="M27.8,43v-7.9h0.9V43H27.8z"/>
		<path class="st12" d="M30.7,39.2c0-1.3,0.3-2.4,0.9-3.1s1.3-1.1,2.2-1.1c0.6,0,1.1,0.2,1.6,0.5c0.5,0.3,0.8,0.8,1.1,1.4
			c0.3,0.6,0.4,1.3,0.4,2.2c0,1.2-0.3,2.1-0.8,2.9c-0.6,0.8-1.3,1.2-2.3,1.2c-1,0-1.7-0.4-2.3-1.2C30.9,41.1,30.7,40.2,30.7,39.2z
			 M31.5,39.2c0,1,0.2,1.7,0.6,2.3c0.4,0.5,0.9,0.8,1.6,0.8c0.6,0,1.2-0.3,1.6-0.8c0.4-0.5,0.6-1.3,0.6-2.4c0-0.7-0.1-1.3-0.3-1.8
			c-0.2-0.4-0.4-0.7-0.8-1c-0.3-0.2-0.7-0.4-1.1-0.4c-0.6,0-1.2,0.3-1.6,0.8C31.8,37.2,31.5,38.1,31.5,39.2z"/>
	</g>
</g>
<path class="st18" d="M17.7,17c0,0,7.3,0.3,8.9,6.2c0,0,0.1,0.5-0.5,1.3c0.8,1,2.1,2.3,3.9,2.9L29.4,28c0,0-2.4-1.2-3.5-3.2
	c-0.2,0.2-0.3,0.3-0.6,0.5C23.6,26.4,17.1,22.7,17.7,17z"/>
<path class="st18" d="M43,13c0,0-9.9,2-13,9c0.7,0.3,4.8-0.2,10-4c-1.6,3-4.6,5.4-9.6,5.4c0.1,0.1,0.2,0.3,0.3,0.4
	c-1.2,1.4-3.1,3.3-5.7,4.2l1,1c0,0,3.5-1.7,5.2-4.7c0.2,0.2,0.5,0.5,0.8,0.7C34.3,26.7,43.8,21.3,43,13z"/>
</svg>
