<?xml version="1.0" encoding="utf-8"?>
<!-- Generator: Adobe Illustrator 19.1.0, SVG Export Plug-In . SVG Version: 6.00 Build 0)  -->
<svg version="1.1" id="Ebene_1" xmlns="http://www.w3.org/2000/svg" xmlns:xlink="http://www.w3.org/1999/xlink" x="0px" y="0px"
	 width="58px" height="58px" viewBox="0 0 58 58" style="enable-background:new 0 0 58 58;" xml:space="preserve">
<style type="text/css">
	.st0{fill:#C7D5F6;}
	.st1{fill:url(#SVGID_1_);}
	.st2{fill-rule:evenodd;clip-rule:evenodd;fill:#FFFFFF;}
	.st3{fill:#69738B;}
	.st4{fill:#F5D34F;}
	.st5{fill:url(#SVGID_2_);}
	.st6{fill:#94780A;}
	.st7{fill:#C69C6D;}
	.st8{fill:url(#SVGID_3_);}
	.st9{fill:#8C6239;}
	.st10{fill:#C0DD51;}
	.st11{fill:url(#SVGID_4_);}
	.st12{fill:#FFFFFF;}
	.st13{fill:#637C25;}
	.st14{fill:url(#SVGID_5_);}
	.st15{fill:#6AB125;}
	.st16{fill:url(#SVGID_6_);}
	.st17{fill:#436B18;}
	.st18{fill:#67AD30;}
	.st19{fill:url(#SVGID_7_);}
	.st20{fill:#603813;}
	.st21{fill:#42210B;}
	.st22{fill:#3A2513;}
	.st23{fill:#1C120B;}
	.st24{fill:#6D4F3B;}
	.st25{fill:#F2E3B8;}
	.st26{fill:#BAA16A;}
	.st27{fill:#AF7F58;}
	.st28{fill:#513723;}
	.st29{fill:#FCF3DB;}
	.st30{fill:#AA9261;}
</style>
<circle class="st10" cx="29" cy="29" r="29"/>
<radialGradient id="SVGID_1_" cx="29" cy="29" r="24" gradientUnits="userSpaceOnUse">
	<stop  offset="0.6875" style="stop-color:#9DC65C"/>
	<stop  offset="0.7859" style="stop-color:#97BE55"/>
	<stop  offset="0.9356" style="stop-color:#87A943"/>
	<stop  offset="1" style="stop-color:#7E9E39"/>
</radialGradient>
<path class="st1" d="M29,53C15.8,53,5,42.2,5,29C5,15.8,15.8,5,29,5c13.2,0,24,10.8,24,24C53,42.2,42.2,53,29,53z"/>
<g>
	<path class="st12" d="M9.7,33.7c-0.3-1.4-0.4-2.7-0.2-4.1c0.8-5.6,3.8-9.6,9.1-11.7c0.6-0.2,1.2-0.3,1.8-0.5c0.1,0,0.3-0.1,0.3-0.2
		c1.2-1.6,2.8-2.5,4.7-3.2c2.2-0.8,4.5-1.2,6.9-1c0.8,0.1,1.6,0.2,2.4,0.5c0.2,0.1,0.5,0.1,0.7,0.1c1.8-0.4,3.6-0.2,5.4,0.3
		c1.9,0.6,3.7,1.5,5.2,2.9c0.5,0.5,0.9,1.1,1.4,1.6c0.2,0.2,0.1,0.3,0,0.5c-2.4,3.2-5.6,4.6-9.5,4.7c-0.5,0-1,0-1.4,0
		c-0.5-0.1-0.9,0.1-1.3,0.4c-0.6,0.5-1.3,1.1-2,1.5c-2.4,1.6-5,2-7.8,1.6c-0.1,0-0.3,0-0.4-0.1c-0.6-0.2-1,0-1.5,0.4
		c-0.8,0.7-1.6,1.4-2.4,2c-1.5,1.1-3.2,1.6-5.1,1.8c-0.7,0.1-1.4,0.1-2.1,0.1c-1.3,0-2.3,0.5-3.3,1.4C10.3,33,10,33.3,9.7,33.7z
		 M24.1,19.6c-0.1,0.3-0.2,0.6-0.3,0.9c-0.1,0.2-0.1,0.5-0.1,0.8c-0.1,1.5,0.8,2.6,2.4,2.8c2.9,0.4,5.1-0.6,6.8-2.9
		c0.9-1.2,0.8-2.7-0.3-3.8c-1.5-1.4-3.2-1.8-5.1-1.1C25.9,16.8,24.9,18.1,24.1,19.6z M13.5,24.9c-0.3,0.6-0.4,1.2-0.4,1.8
		c0,1,0.6,1.8,1.6,2c0.7,0.2,1.3,0.2,2,0c1.9-0.4,3.3-1.5,4.2-3.3c0.4-0.9,0.2-1.7-0.4-2.4c-1-1.1-2.8-1.5-4.3-0.9
		C14.8,22.6,14.1,23.7,13.5,24.9z M42.5,16c-1.2-0.5-2.3-0.7-3.5-0.6c-1,0.1-1.8,0.5-2.3,1.3c-0.5,0.8-0.6,1.6-0.5,2.5
		c0.1,1.5,1,2.2,2.4,2.4c1.2,0.1,2.3,0,3.3-0.6c0.8-0.4,1.5-1,1.9-1.8c0.6-1,0.4-2.1-0.5-2.8C43,16.2,42.7,16.1,42.5,16z"/>
</g>
<polygon class="st10" points="47,49.3 10,49.3 1,30.3 57,30.3 "/>
<g>
	<path class="st13" d="M19.6,36.3l0.6-0.1c0,0.3,0.1,0.6,0.2,0.7c0.1,0.2,0.3,0.3,0.5,0.4c0.2,0.1,0.4,0.2,0.7,0.2
		c0.4,0,0.7-0.1,0.9-0.3c0.2-0.2,0.3-0.4,0.3-0.7c0-0.2,0-0.3-0.1-0.4s-0.2-0.2-0.3-0.3c-0.1-0.1-0.5-0.2-1-0.3
		c-0.4-0.1-0.8-0.3-0.9-0.4c-0.2-0.1-0.3-0.3-0.4-0.5c-0.1-0.2-0.2-0.4-0.2-0.7c0-0.5,0.2-0.8,0.4-1.1c0.3-0.3,0.7-0.4,1.2-0.4
		c0.3,0,0.7,0.1,0.9,0.2s0.5,0.3,0.6,0.6s0.2,0.6,0.2,0.9l-0.6,0.1c0-0.4-0.1-0.6-0.3-0.8S21.8,33,21.4,33c-0.4,0-0.6,0.1-0.8,0.2
		c-0.2,0.2-0.3,0.4-0.3,0.6c0,0.2,0.1,0.4,0.2,0.5c0.1,0.1,0.4,0.3,0.9,0.4c0.5,0.1,0.8,0.2,1,0.3c0.3,0.1,0.5,0.3,0.6,0.6
		c0.1,0.2,0.2,0.5,0.2,0.9c0,0.3-0.1,0.6-0.2,0.9c-0.2,0.3-0.4,0.5-0.6,0.6c-0.3,0.1-0.6,0.2-1,0.2c-0.6,0-1-0.2-1.4-0.5
		C19.8,37.4,19.6,36.9,19.6,36.3z"/>
	<path class="st13" d="M24.5,35.4c0-1,0.2-1.7,0.6-2.3s1-0.8,1.6-0.8c0.4,0,0.8,0.1,1.1,0.4s0.6,0.6,0.8,1s0.3,1,0.3,1.6
		c0,0.8-0.2,1.5-0.6,2.1c-0.4,0.6-1,0.9-1.7,0.9c-0.7,0-1.3-0.3-1.7-0.9C24.7,36.8,24.5,36.2,24.5,35.4z M25.1,35.4
		c0,0.7,0.2,1.3,0.5,1.6c0.3,0.4,0.7,0.6,1.1,0.6c0.5,0,0.8-0.2,1.1-0.6c0.3-0.4,0.5-1,0.5-1.7c0-0.5-0.1-0.9-0.2-1.3
		c-0.1-0.3-0.3-0.5-0.6-0.7S27,33,26.7,33c-0.5,0-0.9,0.2-1.2,0.6C25.3,34,25.1,34.6,25.1,35.4z"/>
	<path class="st13" d="M31.6,38.2v-2.4l-1.8-3.3h0.8l0.9,1.7c0.2,0.3,0.3,0.7,0.5,1c0.1-0.3,0.3-0.6,0.5-1l0.9-1.7h0.7l-1.9,3.3v2.4
		H31.6z"/>
	<path class="st13" d="M34.2,38.2l1.8-5.7h0.7l1.9,5.7h-0.7l-0.5-1.7h-2l-0.5,1.7H34.2z M35.5,35.8h1.6l-0.5-1.6
		c-0.2-0.5-0.3-0.9-0.3-1.2c-0.1,0.4-0.1,0.7-0.3,1.1L35.5,35.8z"/>
	<path class="st13" d="M21,47.2v-5.7h3.2v0.7h-2.5v1.8h2.2v0.7h-2.2v2.6H21z"/>
	<path class="st13" d="M25.5,47.2v-5.7h2.1c0.4,0,0.8,0.1,1,0.2s0.4,0.3,0.5,0.5c0.1,0.2,0.2,0.5,0.2,0.9c0,0.4-0.1,0.8-0.3,1
		c-0.2,0.3-0.6,0.4-1,0.5c0.2,0.1,0.3,0.2,0.4,0.3c0.2,0.2,0.3,0.5,0.5,0.7l0.8,1.6h-0.8L28.3,46c-0.2-0.5-0.4-0.8-0.5-0.9
		c-0.1-0.2-0.2-0.3-0.4-0.3c-0.1-0.1-0.3-0.1-0.5-0.1h-0.7v2.5H25.5z M26.1,44h1.3c0.3,0,0.5,0,0.7-0.1s0.3-0.2,0.4-0.3
		s0.1-0.3,0.1-0.5c0-0.3-0.1-0.5-0.3-0.7s-0.4-0.2-0.8-0.2h-1.5V44z"/>
	<path class="st13" d="M30.8,47.2v-5.7h3.4v0.7h-2.8v1.8H34v0.7h-2.6v1.9h2.9v0.7H30.8z"/>
	<path class="st13" d="M35.8,47.2v-5.7h0.6v5.7H35.8z"/>
</g>
</svg>
