<?xml version="1.0" encoding="utf-8"?>
<!-- Generator: Adobe Illustrator 19.1.0, SVG Export Plug-In . SVG Version: 6.00 Build 0)  -->
<svg version="1.1" id="Ebene_1" xmlns="http://www.w3.org/2000/svg" xmlns:xlink="http://www.w3.org/1999/xlink" x="0px" y="0px"
	 width="58px" height="58px" viewBox="0 0 58 58" style="enable-background:new 0 0 58 58;" xml:space="preserve">
<style type="text/css">
	.st0{fill:#C7D5F6;}
	.st1{fill:url(#SVGID_1_);}
	.st2{fill-rule:evenodd;clip-rule:evenodd;fill:#FFFFFF;}
	.st3{fill:#69738B;}
	.st4{fill:#F5D34F;}
	.st5{fill:url(#SVGID_2_);}
	.st6{fill:#94780A;}
	.st7{fill:#C69C6D;}
	.st8{fill:url(#SVGID_3_);}
	.st9{fill:#8C6239;}
	.st10{fill:#C0DD51;}
	.st11{fill:url(#SVGID_4_);}
	.st12{fill:#FFFFFF;}
	.st13{fill:#637C25;}
	.st14{fill:url(#SVGID_5_);}
	.st15{fill:#6AB125;}
	.st16{fill:url(#SVGID_6_);}
	.st17{fill:#436B18;}
	.st18{fill:#67AD30;}
	.st19{fill:url(#SVGID_7_);}
	.st20{fill:#603813;}
	.st21{fill:#42210B;}
	.st22{fill:#3A2513;}
	.st23{fill:#1C120B;}
	.st24{fill:#6D4F3B;}
	.st25{fill:#F2E3B8;}
	.st26{fill:#BAA16A;}
	.st27{fill:#AF7F58;}
	.st28{fill:#513723;}
	.st29{fill:#FCF3DB;}
	.st30{fill:#AA9261;}
</style>
<circle class="st7" cx="29" cy="29" r="29"/>
<radialGradient id="SVGID_1_" cx="29" cy="29" r="24" gradientUnits="userSpaceOnUse">
	<stop  offset="0.6875" style="stop-color:#C69C6D"/>
	<stop  offset="0.8025" style="stop-color:#BE9467"/>
	<stop  offset="0.9775" style="stop-color:#A97F55"/>
	<stop  offset="1" style="stop-color:#A67C52"/>
</radialGradient>
<path class="st1" d="M29,53C15.8,53,5,42.2,5,29C5,15.8,15.8,5,29,5c13.2,0,24,10.8,24,24C53,42.2,42.2,53,29,53z"/>
<polygon class="st2" points="29.7,38 15.3,34 15.3,16.8 29.7,20.8 "/>
<polygon class="st2" points="42,34.1 30.7,38.1 30.7,20.9 42,16.9 "/>
<polygon class="st2" points="42,15.7 30.7,19.7 15.9,15.7 29,11 "/>
<polygon class="st7" points="47,49.3 10,49.3 1,30.3 57,30.3 "/>
<g>
	<path class="st9" d="M14.1,38.2v-0.7l2.4-3.7c0.2-0.3,0.3-0.5,0.5-0.7h-2.6v-0.7h3.4v0.7l-2.6,4l-0.3,0.4h3v0.7H14.1z"/>
	<path class="st9" d="M22.1,32.4h0.6v3.3c0,0.6-0.1,1-0.2,1.4c-0.1,0.4-0.3,0.6-0.6,0.8s-0.6,0.3-1.1,0.3c-0.6,0-1.1-0.2-1.4-0.6
		c-0.3-0.4-0.5-1-0.5-2v-3.3h0.6v3.3c0,0.5,0,0.9,0.1,1.1c0.1,0.2,0.2,0.4,0.4,0.5s0.4,0.2,0.7,0.2c0.4,0,0.8-0.1,1-0.4
		s0.3-0.7,0.3-1.5V32.4z"/>
	<path class="st9" d="M27.6,36.2l0.6,0.2c-0.1,0.6-0.4,1.1-0.7,1.4s-0.8,0.5-1.3,0.5c-0.4,0-0.8-0.1-1.1-0.3c-0.3-0.2-0.6-0.6-0.8-1
		c-0.2-0.5-0.3-1-0.3-1.7c0-0.6,0.1-1.2,0.3-1.6c0.2-0.4,0.5-0.8,0.8-1c0.3-0.2,0.7-0.3,1.1-0.3c0.5,0,0.8,0.1,1.2,0.4
		c0.3,0.3,0.6,0.7,0.7,1.2l-0.6,0.2c-0.2-0.8-0.6-1.2-1.3-1.2c-0.3,0-0.6,0.1-0.8,0.2S25,33.6,24.9,34s-0.2,0.8-0.2,1.3
		c0,0.8,0.1,1.4,0.4,1.8c0.3,0.4,0.6,0.6,1.1,0.6c0.3,0,0.6-0.1,0.9-0.4S27.5,36.6,27.6,36.2z"/>
	<path class="st9" d="M29.5,38.2v-5.7h0.6v2.8l2.3-2.8h0.8l-2,2.3l2.1,3.4h-0.8l-1.7-2.9l-0.8,0.9v2H29.5z"/>
	<path class="st9" d="M34.4,38.2v-5.7h3.4v0.7H35v1.8h2.6v0.7H35v1.9h2.9v0.7H34.4z"/>
	<path class="st9" d="M39.3,38.2v-5.7h2.1c0.4,0,0.8,0.1,1,0.2s0.4,0.3,0.5,0.5C43,33.4,43,33.7,43,34c0,0.4-0.1,0.8-0.3,1.1
		c-0.2,0.3-0.6,0.4-1,0.5c0.2,0.1,0.3,0.2,0.4,0.3c0.2,0.2,0.3,0.5,0.5,0.7l0.8,1.6h-0.8L42,37c-0.2-0.5-0.4-0.8-0.5-0.9
		c-0.1-0.2-0.2-0.3-0.4-0.3c-0.1-0.1-0.3-0.1-0.5-0.1h-0.7v2.5H39.3z M39.9,35h1.3c0.3,0,0.5,0,0.7-0.1s0.3-0.2,0.4-0.3
		s0.1-0.3,0.1-0.5c0-0.3-0.1-0.5-0.3-0.7s-0.4-0.2-0.8-0.2h-1.5V35z"/>
	<path class="st9" d="M21,47.2v-5.7h3.2v0.7h-2.5v1.8h2.2v0.7h-2.2v2.6H21z"/>
	<path class="st9" d="M25.5,47.2v-5.7h2.1c0.4,0,0.8,0.1,1,0.2s0.4,0.3,0.5,0.5c0.1,0.2,0.2,0.5,0.2,0.9c0,0.4-0.1,0.8-0.3,1
		c-0.2,0.3-0.6,0.4-1,0.5c0.2,0.1,0.3,0.2,0.4,0.3c0.2,0.2,0.3,0.5,0.5,0.7l0.8,1.6h-0.8L28.3,46c-0.2-0.5-0.4-0.8-0.5-0.9
		c-0.1-0.2-0.2-0.3-0.4-0.3c-0.1-0.1-0.3-0.1-0.5-0.1h-0.7v2.5H25.5z M26.1,44h1.3c0.3,0,0.5,0,0.7-0.1s0.3-0.2,0.4-0.3
		s0.1-0.3,0.1-0.5c0-0.3-0.1-0.5-0.3-0.7s-0.4-0.2-0.8-0.2h-1.5V44z"/>
	<path class="st9" d="M30.8,47.2v-5.7h3.4v0.7h-2.8v1.8H34v0.7h-2.6v1.9h2.9v0.7H30.8z"/>
	<path class="st9" d="M35.8,47.2v-5.7h0.6v5.7H35.8z"/>
</g>
</svg>
