<?xml version="1.0" encoding="utf-8"?>
<!-- Generator: Adobe Illustrator 19.1.0, SVG Export Plug-In . SVG Version: 6.00 Build 0)  -->
<svg version="1.1" id="Ebene_1" xmlns="http://www.w3.org/2000/svg" xmlns:xlink="http://www.w3.org/1999/xlink" x="0px" y="0px"
	 width="58px" height="58px" viewBox="0 0 58 58" style="enable-background:new 0 0 58 58;" xml:space="preserve">
<style type="text/css">
	.st0{fill:#C7D5F6;}
	.st1{fill:url(#SVGID_1_);}
	.st2{fill-rule:evenodd;clip-rule:evenodd;fill:#FFFFFF;}
	.st3{fill:#69738B;}
	.st4{fill:#F5D34F;}
	.st5{fill:url(#SVGID_2_);}
	.st6{fill:#94780A;}
	.st7{fill:#C69C6D;}
	.st8{fill:url(#SVGID_3_);}
	.st9{fill:#8C6239;}
	.st10{fill:#C0DD51;}
	.st11{fill:url(#SVGID_4_);}
	.st12{fill:#FFFFFF;}
	.st13{fill:#637C25;}
	.st14{fill:url(#SVGID_5_);}
	.st15{fill:#6AB125;}
	.st16{fill:url(#SVGID_6_);}
	.st17{fill:#436B18;}
	.st18{fill:#67AD30;}
	.st19{fill:url(#SVGID_7_);}
	.st20{fill:#603813;}
	.st21{fill:#42210B;}
	.st22{fill:#3A2513;}
	.st23{fill:#1C120B;}
	.st24{fill:#6D4F3B;}
	.st25{fill:#F2E3B8;}
	.st26{fill:#BAA16A;}
	.st27{fill:#AF7F58;}
	.st28{fill:#513723;}
	.st29{fill:#FCF3DB;}
	.st30{fill:#AA9261;}
</style>
<path class="st25" d="M47.5,53h-37c-3,0-5.5-2.5-5.5-5.5v-37C5,7.5,7.5,5,10.5,5h37c3,0,5.5,2.5,5.5,5.5v37C53,50.5,50.5,53,47.5,53
	z"/>
<polygon class="st26" points="47,49 47,12.8 50,10 50,48 "/>
<polygon class="st29" points="11,46.1 11,12.8 8,10 8,49 "/>
<polygon class="st26" points="50,47 11.9,47 9,50 49,50 "/>
<polygon class="st29" points="12.1,11 47,11 50,8 8,8 "/>
<rect x="5" y="23" class="st25" width="48" height="12"/>
<g>
	<g>
		<path class="st30" d="M18.5,32l-1.3-5.7h0.6l0.7,3.8c0.1,0.4,0.1,0.8,0.2,1.2l0.2-1.1l0.9-3.9h0.8l0.7,2.9c0.2,0.7,0.3,1.4,0.4,2
			c0.1-0.4,0.1-0.8,0.2-1.2l0.7-3.7h0.6L22,32h-0.6l-1-4.4L20.2,27c0,0.3-0.1,0.5-0.1,0.7l-1,4.4H18.5z"/>
		<path class="st30" d="M24.4,32v-5.7h3.4v0.7H25v1.8h2.6v0.7H25v1.9h2.9V32H24.4z"/>
		<path class="st30" d="M29.4,32v-5.7H30V32H29.4z"/>
		<path class="st30" d="M31.4,30.2l0.6-0.1c0,0.3,0.1,0.6,0.2,0.7s0.3,0.3,0.5,0.4s0.4,0.2,0.7,0.2c0.4,0,0.7-0.1,0.9-0.3
			s0.3-0.4,0.3-0.7c0-0.2,0-0.3-0.1-0.4s-0.2-0.2-0.3-0.3c-0.1-0.1-0.5-0.2-1-0.3c-0.4-0.1-0.8-0.3-0.9-0.4s-0.3-0.3-0.4-0.5
			s-0.2-0.4-0.2-0.7c0-0.5,0.1-0.8,0.4-1.1s0.7-0.4,1.2-0.4c0.3,0,0.7,0.1,0.9,0.2s0.5,0.3,0.6,0.6s0.2,0.6,0.2,0.9l-0.6,0.1
			c0-0.4-0.1-0.6-0.3-0.8s-0.5-0.3-0.8-0.3c-0.4,0-0.6,0.1-0.8,0.2s-0.3,0.4-0.3,0.6c0,0.2,0.1,0.4,0.2,0.5c0.1,0.1,0.4,0.3,0.9,0.4
			c0.5,0.1,0.8,0.2,1,0.3c0.3,0.1,0.5,0.3,0.6,0.6c0.1,0.2,0.2,0.5,0.2,0.9c0,0.3-0.1,0.6-0.2,0.9s-0.4,0.5-0.6,0.6s-0.6,0.2-1,0.2
			c-0.6,0-1-0.2-1.4-0.5S31.4,30.8,31.4,30.2z"/>
		<path class="st30" d="M36.3,30.2l0.6-0.1c0,0.3,0.1,0.6,0.2,0.7s0.3,0.3,0.5,0.4s0.4,0.2,0.7,0.2c0.4,0,0.7-0.1,0.9-0.3
			s0.3-0.4,0.3-0.7c0-0.2,0-0.3-0.1-0.4s-0.2-0.2-0.3-0.3c-0.1-0.1-0.5-0.2-1-0.3c-0.4-0.1-0.8-0.3-0.9-0.4s-0.3-0.3-0.4-0.5
			s-0.2-0.4-0.2-0.7c0-0.5,0.1-0.8,0.4-1.1s0.7-0.4,1.2-0.4c0.3,0,0.7,0.1,0.9,0.2s0.5,0.3,0.6,0.6s0.2,0.6,0.2,0.9l-0.6,0.1
			c0-0.4-0.1-0.6-0.3-0.8s-0.5-0.3-0.8-0.3c-0.4,0-0.6,0.1-0.8,0.2S37,27.4,37,27.7c0,0.2,0.1,0.4,0.2,0.5c0.1,0.1,0.4,0.3,0.9,0.4
			c0.5,0.1,0.8,0.2,1,0.3c0.3,0.1,0.5,0.3,0.6,0.6c0.1,0.2,0.2,0.5,0.2,0.9c0,0.3-0.1,0.6-0.2,0.9s-0.4,0.5-0.6,0.6s-0.6,0.2-1,0.2
			c-0.6,0-1-0.2-1.4-0.5S36.3,30.8,36.3,30.2z"/>
	</g>
</g>
</svg>
